<svg xmlns="http://www.w3.org/2000/svg" width="158" height="44.614" viewBox="0 0 158 44.614"><defs><style>.a{fill:#3e5379;}.b{fill:#1b3e67;}.c{fill:#edeeef;}</style></defs><g transform="translate(50.629 13.831)"><path class="a" d="M57.768,15.824h5.54a5.2,5.2,0,0,1,3.536,1.1A3.915,3.915,0,0,1,68.1,20.035a3.956,3.956,0,0,1-1.266,3.142,5.168,5.168,0,0,1-3.526,1.11H59.055v6.16H57.769Zm5.457,7.362q3.589,0,3.589-3.155,0-3.113-3.589-3.113h-4.17v6.266Z" transform="translate(-57.768 -15.813)"/><path class="a" d="M77.642,21.847l-.891.083a3.379,3.379,0,0,0-2.375,1.058,3.3,3.3,0,0,0-.738,2.178v5.891H72.373V21h1.244v1.763a3.117,3.117,0,0,1,1.3-1.4A5.138,5.138,0,0,1,77,20.785l.539-.041Z" transform="translate(-59.573 -16.423)"/><path class="a" d="M81.635,30.56a4.326,4.326,0,0,1-1.629-1.826,6.173,6.173,0,0,1-.581-2.759,6.164,6.164,0,0,1,.581-2.758,4.324,4.324,0,0,1,1.629-1.827,4.925,4.925,0,0,1,4.864,0,4.238,4.238,0,0,1,1.629,1.827,6.279,6.279,0,0,1,.57,2.758,6.291,6.291,0,0,1-.57,2.759A4.23,4.23,0,0,1,86.5,30.56a4.925,4.925,0,0,1-4.864,0m4.885-1.535a4.686,4.686,0,0,0,.871-3.05,4.714,4.714,0,0,0-.876-3.039,3.284,3.284,0,0,0-4.886,0,4.75,4.75,0,0,0-.871,3.039,4.767,4.767,0,0,0,.85,3.05,2.96,2.96,0,0,0,2.449,1.058,3.019,3.019,0,0,0,2.464-1.059Z" transform="translate(-60.444 -16.423)"/><path class="a" d="M93.869,30.557q0,3.444-3.464,3.673l-.912.062-.124-1.017.911-.063a2.488,2.488,0,0,0,1.733-.727,2.564,2.564,0,0,0,.592-1.8V20.434H93.87Zm.207-12.775h-1.66v-1.6h1.66Z" transform="translate(-61.673 -15.859)"/><path class="a" d="M106.5,26.181H98.888a4.32,4.32,0,0,0,1,2.892,3.436,3.436,0,0,0,2.656,1.007,4.981,4.981,0,0,0,3.3-1.245l.5,1a4.873,4.873,0,0,1-1.691,1,6.129,6.129,0,0,1-2.1.374,4.783,4.783,0,0,1-3.63-1.392,5.29,5.29,0,0,1-1.328-3.816,6.108,6.108,0,0,1,.592-2.749A4.395,4.395,0,0,1,99.833,21.4a4.61,4.61,0,0,1,2.458-.655,3.886,3.886,0,0,1,3.091,1.287,5.285,5.285,0,0,1,1.12,3.589ZM99.967,22.7a4.185,4.185,0,0,0-1.038,2.551h6.41a3.935,3.935,0,0,0-.831-2.563,2.792,2.792,0,0,0-2.22-.9,3.061,3.061,0,0,0-2.322.914" transform="translate(-62.687 -16.422)"/><path class="a" d="M112.261,30.559a4.269,4.269,0,0,1-1.65-1.826,6.1,6.1,0,0,1-.581-2.717,6.187,6.187,0,0,1,.592-2.759,4.354,4.354,0,0,1,1.664-1.856,4.779,4.779,0,0,1,2.531-.654,5.546,5.546,0,0,1,1.961.35,3.921,3.921,0,0,1,1.526.975l-.477,1a5.693,5.693,0,0,0-1.485-.933,3.928,3.928,0,0,0-1.483-.291,3.185,3.185,0,0,0-2.561,1.11,4.568,4.568,0,0,0-.944,3.061,4.405,4.405,0,0,0,.933,3,3.213,3.213,0,0,0,2.551,1.07,3.918,3.918,0,0,0,1.485-.292,6.269,6.269,0,0,0,1.5-.912l.477.975a4.412,4.412,0,0,1-1.578.987,5.467,5.467,0,0,1-1.97.361,4.733,4.733,0,0,1-2.5-.639" transform="translate(-64.227 -16.423)"/><path class="a" d="M126.775,29.658l-.062,1.058a7.108,7.108,0,0,1-.975.062,3.369,3.369,0,0,1-2.572-.923,3.523,3.523,0,0,1-.871-2.521V21.608H120.3V20.591H122.3V17.48h1.265v3.111h2.946v1.017H123.56v5.559a2.732,2.732,0,0,0,.592,1.91,2.237,2.237,0,0,0,1.732.642,6.193,6.193,0,0,0,.891-.061" transform="translate(-65.496 -16.019)"/><path class="a" d="M143.659,15.824V30.449h-1.2V18.376l-5.124,9.771h-.955l-5.165-9.688.02,11.99h-1.226V15.824h1.078L136.869,26.9l5.705-11.079Z" transform="translate(-66.696 -15.815)"/><path class="a" d="M156.3,21.7a4.054,4.054,0,0,1,.9,2.883v6.472h-1.245V29.25a3.243,3.243,0,0,1-1.265,1.443,3.574,3.574,0,0,1-1.909.509A4.035,4.035,0,0,1,151,30.808a3.143,3.143,0,0,1-1.276-1.1,2.762,2.762,0,0,1-.466-1.556,2.456,2.456,0,0,1,.579-1.743,3.551,3.551,0,0,1,1.927-.892,20.333,20.333,0,0,1,3.755-.27h.438v-.768a2.97,2.97,0,0,0-.559-2,2.239,2.239,0,0,0-1.763-.633,5.937,5.937,0,0,0-1.753.262,7.073,7.073,0,0,0-1.733.84l-.476-.974a6.216,6.216,0,0,1,1.825-.891,6.89,6.89,0,0,1,2.074-.333,3.592,3.592,0,0,1,2.728.952m-1.2,7.488a3.246,3.246,0,0,0,.86-2.322v-.686h-.393a21.125,21.125,0,0,0-3.051.167,2.866,2.866,0,0,0-1.49.569,1.523,1.523,0,0,0-.438,1.173,1.821,1.821,0,0,0,.664,1.442,2.432,2.432,0,0,0,1.638.571,2.9,2.9,0,0,0,2.209-.915Z" transform="translate(-69.074 -16.422)"/><path class="a" d="M167.352,21.847l-.891.083a3.382,3.382,0,0,0-2.375,1.058,3.309,3.309,0,0,0-.736,2.178v5.891h-1.266V21h1.245v1.763a3.109,3.109,0,0,1,1.3-1.4,5.147,5.147,0,0,1,2.087-.571l.538-.041Z" transform="translate(-70.66 -16.423)"/><path class="a" d="M176.868,30.449l-5.5-4.9v4.9h-1.266V15.825h1.266v9.209l5-4.645h1.638l-5.228,4.834,5.785,5.228Z" transform="translate(-71.651 -15.815)"/></g><g transform="translate(0 0)"><path class="b" d="M.767,20.455,20.455.767a2.617,2.617,0,0,1,3.7,0L43.847,20.455a2.617,2.617,0,0,1,0,3.7L24.157,43.847a2.618,2.618,0,0,1-3.7,0L.767,24.157a2.617,2.617,0,0,1,0-3.7" transform="translate(0 0)"/><path class="c" d="M24.816,10.9A8.992,8.992,0,0,0,15.824,19.9c0,.245.011.486.029.724V35.85L23,28.706a9.1,9.1,0,0,0,1.818.183A8.993,8.993,0,0,0,33.81,19.9v0A8.993,8.993,0,0,0,24.816,10.9" transform="translate(-1.955 -1.347)"/><path class="a" d="M25.251,14.133a5.911,5.911,0,1,1-5.911,5.911,5.912,5.912,0,0,1,5.911-5.911" transform="translate(-2.39 -1.746)"/></g></svg>